<svg xmlns="http://www.w3.org/2000/svg" width="28px" height="27px" viewBox="0 0 28 27" fill="none">
<path d="M16.043 20.5823C13.8667 19.7739 11.6281 19.6496 9.57614 20.2092C8.14596 20.5823 6.77796 21.3285 5.53432 22.2612L4.66376 23.0074L4.41504 23.2561L4.97467 23.7535C5.03685 23.7535 5.03686 23.8157 5.09904 23.8779C5.22341 24.0023 5.34778 24.0645 5.53432 24.1888L5.9074 24.4375L6.28049 24.1266C6.34268 24.0645 6.46704 23.9401 6.5914 23.8779C7.71068 22.9452 8.95431 22.3234 10.2601 22.0125C11.939 21.5772 13.7423 21.6394 15.5456 22.3234C17.0379 22.883 20.0849 23.567 23.7536 22.0125L23.878 21.9503L24.0645 21.7637C24.0645 21.7016 24.1267 21.7015 24.1889 21.6394C24.4998 21.2663 24.8107 20.8932 25.0594 20.4579L26.303 18.5303L24.3132 19.6495C21.3907 21.2663 18.7169 21.5772 16.043 20.5823Z" fill="#B45BC7"/>
<path d="M7.52364 13.8665C9.20255 13.4312 11.0058 13.4934 12.8091 14.1774C14.7989 14.9236 19.8978 15.9807 25.6186 10.8196L26.5513 9.88685L26.6135 9.82466L26.8622 9.57594L26.7378 9.26503C26.6756 9.0163 26.5513 8.7054 26.4269 8.39449L26.116 7.52393L25.4942 8.14574C25.432 8.27011 25.3076 8.33229 25.1833 8.45665C22.4473 11.2548 18.2189 14.1152 13.3687 12.3741C11.1924 11.5658 8.95382 11.4414 6.90182 12.001C4.91201 12.5607 3.17091 13.6178 1.55418 15.1101V15.0479L0.621456 16.0428C0.621456 16.105 0.559286 16.105 0.497104 16.1672L0.310547 16.3538L0.372732 16.6025C0.434914 16.9134 0.559274 17.2243 0.621456 17.5352L0.994551 18.5301L1.61637 17.7218C1.67855 17.5974 1.80291 17.5352 1.86509 17.4109C3.17091 16.2294 4.97419 14.5505 7.52364 13.8665Z" fill="#B45BC7"/>
<path d="M1.49238 12.7474C2.92256 11.2551 4.53928 10.3223 6.28037 9.82486C7.95928 9.38959 9.76255 9.45177 11.5658 10.1358C17.1622 12.1878 22.0124 8.82996 24.1266 7.02668L24.9349 6.21833L25.2458 5.96958L24.9971 5.59651C24.8106 5.40996 24.6862 5.16123 24.4997 4.9125L24.1266 4.41504L23.6913 4.85032C23.6291 4.9125 23.5047 5.03686 23.4426 5.09904C20.8309 7.58632 16.7891 10.1358 12.1876 8.39469C10.0113 7.58633 7.77273 7.46196 5.72074 8.0216C4.41492 8.39469 3.17128 9.0165 1.92764 9.82486L0.621818 10.882C0.497455 11.0063 0.435273 11.0685 0.310909 11.1929L0.186557 11.3172V11.5038C0.124375 11.9391 0.124367 12.3743 0.0621856 12.7474L0 14.302L1.0571 13.1827C1.18146 13.0583 1.30583 12.8718 1.49238 12.7474Z" fill="#B45BC7"/>
<path d="M17.8466 24.8108L17.7222 25.1839L17.8466 24.8108C17.66 24.7486 17.5357 24.6864 17.3491 24.6242C15.1728 23.8158 12.9342 23.6915 10.8822 24.2511C10.4469 24.3755 10.0117 24.4998 9.57639 24.6864L8.08401 25.3704L7.71094 25.5569L8.95457 25.9922C9.32766 26.1166 9.70075 26.2409 10.0738 26.3653L10.2604 26.4275L10.4469 26.3653C10.6335 26.3031 10.82 26.1788 11.0066 26.1788C11.1309 26.1788 11.2553 26.1166 11.3797 26.0544C12.872 25.6813 14.4887 25.6813 16.2298 26.2409C16.4164 26.3031 16.5408 26.3653 16.7273 26.4275L17.0382 26.5518L17.2247 26.4897C17.66 26.3653 18.1575 26.2409 18.5306 26.0544L20.2717 25.4326L18.4684 24.9973C18.2818 24.9351 18.0331 24.8729 17.8466 24.8108Z" fill="#B45BC7"/>
<path d="M27.3597 11.939L26.427 12.8717C26.3027 12.9961 26.1783 13.1204 26.0539 13.2448C23.5045 15.6699 19.4005 18.2815 14.799 16.5404C12.6227 15.7321 10.3841 15.6077 8.33213 16.1673C6.40449 16.727 4.66338 17.7219 3.10884 19.2142L2.30048 20.0848L2.05176 20.3957L2.30048 20.7688C2.48703 21.0175 2.6114 21.2041 2.73576 21.4528L3.10884 22.0124L3.54412 21.4528C3.6063 21.3906 3.73066 21.2662 3.79284 21.2041C5.2852 19.5873 6.90193 18.5924 8.76739 18.095C10.4463 17.6597 12.2496 17.7219 14.0528 18.4059C15.6074 18.9655 17.2241 19.1521 18.8408 18.9655C21.7012 18.6546 24.5616 17.0379 26.6758 15.2346C26.8001 15.1102 26.9245 15.0481 27.0488 14.9237L27.2354 14.7371V14.5506C27.2354 14.1775 27.2976 13.7422 27.2976 13.3692L27.3597 11.939Z" fill="#B45BC7"/>
<path d="M3.73045 6.21814L3.54391 5.84504L3.73045 6.21814C4.10354 6.03159 4.53883 5.90722 4.91192 5.78286C6.59083 5.34758 8.3941 5.40976 10.1974 6.09376C11.3788 6.52904 12.5603 6.71558 13.8661 6.71558C16.4777 6.71558 19.0894 5.78286 21.5145 3.97959L22.4472 3.2334L22.7581 2.98467L22.1985 2.54939C22.0119 2.36285 21.7632 2.17631 21.5145 2.05195L21.1414 1.80322L20.8305 2.05195C20.7061 2.11413 20.6439 2.23849 20.5195 2.30067C17.2239 4.78794 13.9283 5.47195 10.8192 4.2905C8.58065 3.48213 6.34209 3.29559 4.10355 3.97959C3.917 4.04177 3.73045 4.10394 3.48173 4.16612L3.35738 4.22831L3.17082 4.41485C3.17082 4.47703 3.10865 4.47704 3.04647 4.53922C2.79774 4.91231 2.48682 5.22323 2.23809 5.59632L1.05664 7.39959L2.98428 6.40467C3.29519 6.40467 3.54391 6.28032 3.73045 6.21814Z" fill="#B45BC7"/>
<path d="M8.82967 1.98981L9.01621 2.05199C9.82457 2.3629 11.0682 2.67381 12.6228 2.67381C14.2395 2.67381 15.794 2.30072 17.3486 1.6789L19.2762 0.74617L17.9704 0.310909C17.5973 0.186545 17.2242 0.0621818 16.7889 0H16.6024L16.4159 0.0621666C16.2293 0.124348 16.0428 0.248727 15.8562 0.310909C13.9908 0.994909 12.1253 1.11927 10.322 0.621818C10.1355 0.559636 9.94894 0.497443 9.7624 0.435261L9.57586 0.373076L9.3893 0.435261C9.01621 0.559625 8.64313 0.683996 8.27004 0.870542L6.83984 1.49236L8.33222 1.92762C8.45659 1.86544 8.64312 1.92762 8.82967 1.98981Z" fill="#B45BC7"/>
</svg>